<svg width="74" height="20" viewBox="0 0 74 20" fill="none" xmlns="http://www.w3.org/2000/svg">
<path d="M36.8 0.700012H0.100098L0.600098 0.900024C1.5001 1.30002 2.3 1.90003 3 2.50003C4 3.50003 4.7 4.70002 5 5.90002C5.3 7.10002 5.8 9.10001 6.5 10.6C6.8 11.5 7.2001 12.3 7.6001 13.2C7.8001 13.7 8.10002 14.2 8.40002 14.6C9.00002 15.5 9.7001 16.3 10.6001 16.9C11.7001 17.8 12.6 18.5 13.9 18.9C15.5 19.6 17.8 20 21.5 20C25.2 20 21.7 20 21.8 20C21.8 20 21.9 20 22 20H51.7001C51.7001 20 51.8 20 51.9 20C51.9 20 52.1001 20 52.2001 20C55.9001 20 58.1 19.5 59.8 18.9C61.1 18.5 62.0001 17.8 63.1001 16.9C64.0001 16.3 64.7001 15.5 65.3 14.6C65.6001 14.2 65.9001 13.7 66.1001 13.2C66.6001 12.3 66.9001 11.5 67.2001 10.6C67.8001 9.10001 68.4001 7.00002 68.7001 5.90002C69.0001 4.60002 69.7001 3.50003 70.7001 2.50003C71.3001 1.90003 72.1001 1.30002 73.1001 0.900024L73.6001 0.700012H36.9H36.8Z" fill="url(#paint0_linear_1_511)"/>
<defs>
<linearGradient id="paint0_linear_1_511" x1="36.8001" y1="20.1" x2="36.8001" y2="0.600012" gradientUnits="userSpaceOnUse">
<stop stop-color="#E00D0E"/>
<stop offset="0.4" stop-color="#DD0D0E"/>
<stop offset="0.7" stop-color="#D50F0F"/>
<stop offset="0.9" stop-color="#C61211"/>
<stop offset="1" stop-color="#B81514"/>
</linearGradient>
</defs>
</svg>
