<svg width="85" height="24" viewBox="0 0 85 24" fill="none" xmlns="http://www.w3.org/2000/svg">
<g opacity="0.23">
<g style="mix-blend-mode:multiply" opacity="0.1">
<path d="M41.9 3.80002H1.1001L1.70007 4.00003C2.70007 4.40003 3.60005 5.00001 4.30005 5.60001C5.40005 6.60001 6.1 7.70003 6.5 9.00003C6.8 10.1 7.4001 12.1 8.1001 13.7C8.5001 14.6 8.80005 15.4 9.30005 16.3C9.60005 16.8 9.90007 17.2 10.2001 17.7C10.8001 18.6 11.6001 19.3 12.6001 19.9C13.8001 20.8 14.9 21.4 16.3 21.9C18.1 22.6 20.6001 23 24.7001 23C28.8001 23 24.9 23 25 23H25.2001H58.2001H58.4C58.5 23 58.6001 23 58.7001 23C62.8001 23 65.3001 22.5 67.1001 21.9C68.6001 21.5 69.6001 20.8 70.8 19.9C71.8 19.3 72.6001 18.5 73.2001 17.7C73.6001 17.3 73.9001 16.8 74.1001 16.3C74.6001 15.4 75 14.6 75.3 13.7C76 12.2 76.6 10.2 76.9 9.00003C77.2 7.80003 78.0001 6.60001 79.1001 5.60001C79.8001 5.00001 80.7001 4.40003 81.7001 4.00003L82.3 3.80002H41.5H41.9Z" fill="#DADADA"/>
</g>
<g style="mix-blend-mode:multiply" opacity="0.1">
<path d="M41.9 3.70001H1.30005L1.90002 3.90002C2.90002 4.30002 3.8 4.90003 4.5 5.50003C5.6 6.50003 6.30007 7.60002 6.70007 8.90002C7.00007 10 7.60005 12 8.30005 13.6C8.70005 14.5 9 15.3 9.5 16.2C9.8 16.7 10.1 17.1 10.4 17.6C11 18.5 11.8 19.2 12.8 19.9C14 20.8 15.1 21.4 16.5 21.9C18.3 22.6 20.8 23 24.9 23C29 23 25.1001 23 25.2001 23H25.4H58.3H58.5C58.6 23 58.7001 23 58.8 23C62.9 23 65.4001 22.5 67.2001 21.9C68.7001 21.5 69.7 20.8 70.9 19.9C71.9 19.3 72.7001 18.5 73.3 17.6C73.7001 17.2 74.0001 16.7 74.2001 16.2C74.7001 15.3 75.1 14.5 75.4 13.6C76.1 12.1 76.7 10.1 77 8.90002C77.3 7.70002 78.1001 6.50003 79.2001 5.50003C79.9001 4.90003 80.8 4.30002 81.8 3.90002L82.4 3.70001H41.7001H41.9Z" fill="#D6D6D6"/>
</g>
<g style="mix-blend-mode:multiply" opacity="0.1">
<path d="M41.9 3.60001H1.40002L2 3.80002C3 4.20002 3.9001 4.80002 4.6001 5.40002C5.7001 6.40002 6.40005 7.50002 6.80005 8.80002C7.10005 10 7.70002 11.9 8.40002 13.5C8.80002 14.4 9.1001 15.2 9.6001 16.1C9.9001 16.6 10.2 17 10.5 17.5C11.1 18.4 11.9 19.1 12.9 19.8C14.1 20.7 15.1001 21.3 16.6001 21.8C18.4001 22.5 20.9 22.9 25 22.9C29.1 22.9 25.2 22.9 25.3 22.9H25.5H58.3H58.5C58.6 22.9 58.7001 22.9 58.8 22.9C62.9 22.9 65.4001 22.4 67.2001 21.8C68.7001 21.4 69.7 20.7 70.9 19.8C71.9 19.2 72.7001 18.4 73.3 17.5C73.6001 17.1 74.0001 16.6 74.2001 16.1C74.7001 15.2 75.1 14.4 75.4 13.5C76.1 12 76.7 10 77 8.80002C77.3 7.60002 78.1001 6.40002 79.2001 5.40002C79.9001 4.80002 80.8 4.20002 81.8 3.80002L82.4 3.60001H41.9Z" fill="#D2D2D2"/>
</g>
<g style="mix-blend-mode:multiply" opacity="0.1">
<path d="M41.9 3.50003H1.5L2.1001 3.70001C3.1001 4.10001 4.00007 4.70002 4.70007 5.30002C5.80007 6.30002 6.50002 7.40001 6.90002 8.70001C7.20002 9.90001 7.8 11.8 8.5 13.4C8.9 14.3 9.20007 15.1 9.70007 16C10.0001 16.5 10.3001 16.9 10.6001 17.4C11.2001 18.3 12 19 13 19.7C14.2 20.6 15.2001 21.2 16.7001 21.7C18.5001 22.4 20.9 22.8 25 22.8C29.1 22.8 25.2 22.8 25.3 22.8H25.5H58.2001H58.4C58.5 22.8 58.6001 22.8 58.7001 22.8C62.8001 22.8 65.2 22.3 67 21.7C68.4 21.3 69.5001 20.6 70.7001 19.7C71.7001 19.1 72.5001 18.3 73.1001 17.4C73.4001 17 73.8 16.5 74 16C74.5 15.1 74.9001 14.3 75.2001 13.4C75.9001 11.9 76.5 9.90001 76.8 8.70001C77.1001 7.50001 77.9 6.30002 79 5.30002C79.7 4.70002 80.6001 4.10001 81.6001 3.70001L82.2001 3.50003H41.8H41.9Z" fill="#CECECE"/>
</g>
<g style="mix-blend-mode:multiply" opacity="0.2">
<path d="M41.9 3.40002H1.6001L2.20007 3.60001C3.20007 4.00001 4.10005 4.60001 4.80005 5.20001C5.90005 6.20001 6.60002 7.30001 6.90002 8.60001C7.20002 9.80001 7.8 11.8 8.5 13.3C8.9 14.2 9.20007 15 9.70007 15.9C10.0001 16.4 10.3001 16.8 10.6001 17.3C11.2001 18.2 12 18.9 13 19.6C14.2 20.5 15.2001 21.1 16.7001 21.6C18.5001 22.3 20.9 22.7 25 22.7C29.1 22.7 25.2 22.7 25.3 22.7H25.5H58.1001C58.1001 22.7 58.2001 22.7 58.3 22.7C58.4 22.7 58.5001 22.7 58.6001 22.7C62.7001 22.7 65.1 22.2 66.9 21.6C68.3 21.2 69.4001 20.5 70.6001 19.6C71.6001 19 72.4 18.2 73 17.3C73.3 16.9 73.7 16.4 73.9 15.9C74.4 15 74.8001 14.2 75.1001 13.3C75.8001 11.8 76.4001 9.80001 76.7001 8.60001C77.0001 7.40001 77.7001 6.20001 78.8 5.20001C79.5 4.60001 80.4 4.00001 81.4 3.60001L82 3.40002H41.7001H41.9Z" fill="#CACAC9"/>
</g>
<g style="mix-blend-mode:multiply" opacity="0.2">
<path d="M41.9 3.30002H1.80005L2.40002 3.50003C3.40002 3.90003 4.3 4.50001 5 5.10001C6.1 6.10001 6.8001 7.20003 7.1001 8.50003C7.4001 9.70003 8.00007 11.7 8.70007 13.2C9.10007 14.1 9.40002 14.9 9.90002 15.8C10.2 16.3 10.5 16.7 10.8 17.2C11.4 18.1 12.2001 18.8 13.2001 19.5C14.4001 20.4 15.4 21 16.9 21.5C18.7 22.2 21.1001 22.6 25.2001 22.6C29.3001 22.6 25.4 22.6 25.5 22.6H25.7001H58.2001C58.2001 22.6 58.3 22.6 58.4 22.6C58.5 22.6 58.6001 22.6 58.7001 22.6C62.8001 22.6 65.2 22.1 67 21.5C68.4 21.1 69.5001 20.4 70.7001 19.5C71.7001 18.9 72.5001 18.1 73.1001 17.2C73.4001 16.8 73.8 16.3 74 15.8C74.5 14.9 74.9001 14.1 75.2001 13.2C75.9001 11.7 76.5 9.70003 76.8 8.50003C77.1001 7.30003 77.8 6.10001 78.9 5.10001C79.6 4.50001 80.5 3.90003 81.5 3.50003L82.1001 3.30002H42H41.9Z" fill="#C6C6C5"/>
</g>
<g style="mix-blend-mode:multiply" opacity="0.2">
<path d="M41.9 3.20001H1.90002L2.5 3.40002C3.5 3.80002 4.4001 4.40003 5.1001 5.00003C6.2001 6.00003 6.90007 7.10002 7.20007 8.40002C7.50007 9.60002 8.10005 11.6 8.80005 13.1C9.20005 14 9.5 14.8 10 15.7C10.3 16.2 10.6 16.6 10.9 17.1C11.5 18 12.3 18.7 13.3 19.4C14.5 20.3 15.5 20.9 17 21.4C18.8 22.1 21.2 22.5 25.3 22.5C29.4 22.5 25.5001 22.5 25.6001 22.5H25.8H58.2001C58.2001 22.5 58.3 22.5 58.4 22.5C58.5 22.5 58.6001 22.5 58.7001 22.5C62.7001 22.5 65.2 22 67 21.4C68.4 21 69.4001 20.3 70.7001 19.4C71.7001 18.8 72.4001 18 73.1001 17.1C73.4001 16.7 73.8 16.2 74 15.7C74.5 14.8 74.9001 14 75.2001 13.1C75.9001 11.6 76.5 9.60002 76.8 8.40002C77.1001 7.20002 77.8 6.00003 78.9 5.00003C79.6 4.40003 80.5 3.80002 81.5 3.40002L82.1001 3.20001H42.1001H41.9Z" fill="#C2C2C1"/>
</g>
<g style="mix-blend-mode:multiply" opacity="0.2">
<path d="M41.9 3.10001H2L2.6001 3.30002C3.6001 3.70002 4.50007 4.30002 5.20007 4.90002C6.30007 5.90002 7.00005 7.00002 7.30005 8.30002C7.60005 9.50002 8.20002 11.5 8.90002 13C9.30002 13.9 9.6001 14.7 10.1001 15.6C10.4001 16.1 10.7 16.5 11 17C11.6 17.9 12.4 18.6 13.4 19.3C14.6 20.2 15.6 20.8 17 21.3C18.8 22 21.2001 22.4 25.2001 22.4C29.2001 22.4 25.4 22.4 25.5 22.4H25.7001H58C58 22.4 58.1001 22.4 58.2001 22.4C58.3001 22.4 58.4 22.4 58.5 22.4C62.5 22.4 65.0001 21.9 66.7001 21.3C68.1001 20.9 69.1001 20.2 70.3 19.3C71.3 18.7 72.0001 17.9 72.7001 17C73.0001 16.6 73.3001 16.1 73.6001 15.6C74.1001 14.7 74.5 13.9 74.8 13C75.5 11.5 76.1 9.50002 76.4 8.30002C76.7 7.10002 77.4 5.90002 78.5 4.90002C79.2 4.30002 80.0001 3.70002 81.1001 3.30002L81.7001 3.10001H41.8H41.9Z" fill="#BDBDBD"/>
</g>
<g style="mix-blend-mode:multiply" opacity="0.2">
<path d="M41.9 3.00003H2.20007L2.80005 3.20001C3.80005 3.60001 4.70002 4.20002 5.40002 4.80002C6.50002 5.80002 7.2 6.90001 7.5 8.20001C7.8 9.40001 8.4001 11.4 9.1001 12.9C9.5001 13.8 9.80005 14.6 10.3 15.5C10.6 16 10.9001 16.4 11.2001 16.9C11.8001 17.8 12.6001 18.5 13.6001 19.2C14.8001 20.1 15.8001 20.7 17.2001 21.2C19.0001 21.9 21.4 22.3 25.4 22.3C29.4 22.3 25.6001 22.3 25.7001 22.3H25.9H58.1001C58.1001 22.3 58.2001 22.3 58.3 22.3C58.4 22.3 58.5001 22.3 58.6001 22.3C62.6001 22.3 65 21.8 66.8 21.2C68.2001 20.8 69.2 20.1 70.4 19.2C71.4 18.6 72.1001 17.8 72.8 16.9C73.1001 16.5 73.4001 16 73.7001 15.5C74.2001 14.6 74.5 13.8 74.9 12.9C75.6 11.4 76.2 9.40001 76.5 8.20001C76.8 7.00001 77.5001 5.80002 78.6001 4.80002C79.3001 4.20002 80.1001 3.60001 81.2001 3.20001L81.8 3.00003H42H41.9Z" fill="#B9B9B9"/>
</g>
<g style="mix-blend-mode:multiply" opacity="0.2">
<path d="M41.9 2.90002H2.30005L2.90002 3.10001C3.90002 3.50001 4.8 4.10001 5.5 4.70001C6.6 5.70001 7.3001 6.80001 7.6001 8.10001C7.9001 9.30001 8.50007 11.3 9.20007 12.8C9.60007 13.7 9.90002 14.5 10.4 15.4C10.7 15.9 11 16.3 11.3 16.8C11.9 17.7 12.7001 18.4 13.6001 19.1C14.8001 20 15.8001 20.6 17.2001 21.1C19.0001 21.8 21.4 22.2 25.4 22.2C29.4 22.2 25.6001 22.2 25.7001 22.2H25.9H57.9C57.9 22.2 58.0001 22.2 58.1001 22.2C58.2001 22.2 58.3 22.2 58.4 22.2C62.4 22.2 64.8001 21.7 66.6001 21.1C68.0001 20.7 69.0001 20 70.2001 19.1C71.2001 18.5 71.9 17.7 72.5 16.8C72.8 16.4 73.1 15.9 73.4 15.4C73.9 14.5 74.2001 13.7 74.6001 12.8C75.3001 11.3 75.9001 9.30001 76.2001 8.10001C76.5001 6.90001 77.2001 5.70001 78.3 4.70001C79 4.10001 79.8 3.50001 80.8 3.10001L81.4 2.90002H41.8H41.9Z" fill="#B5B5B5"/>
</g>
<g style="mix-blend-mode:multiply" opacity="0.2">
<path d="M41.9 2.80002H2.40002L3 3.00003C4 3.40003 4.8 4.00001 5.5 4.60001C6.6 5.60001 7.3001 6.70003 7.6001 8.00003C7.9001 9.20003 8.50007 11.2 9.20007 12.7C9.60007 13.6 9.90002 14.4 10.4 15.3C10.7 15.8 11 16.2 11.3 16.7C11.9 17.6 12.7001 18.3 13.6001 19C14.8001 19.9 15.8001 20.5 17.2001 21C18.9001 21.7 21.4 22.1 25.3 22.1C29.2 22.1 25.5001 22.1 25.6001 22.1H25.8H57.7001C57.7001 22.1 57.8 22.1 57.9 22.1C58 22.1 58.1001 22.1 58.2001 22.1C62.2001 22.1 64.6 21.6 66.3 21C67.7001 20.6 68.7 19.9 69.9 19C70.9 18.4 71.6001 17.6 72.2001 16.7C72.5001 16.3 72.8001 15.8 73.1001 15.3C73.6001 14.4 73.9 13.6 74.3 12.7C75 11.2 75.6 9.20003 75.9 8.00003C76.2 6.80003 76.9 5.60001 78 4.60001C78.7 4.00001 79.5 3.40003 80.5 3.00003L81.1001 2.80002H41.6001H41.9Z" fill="#B1B1B1"/>
</g>
<g style="mix-blend-mode:multiply" opacity="0.2">
<path d="M41.9 2.70001H2.5L3.1001 2.90002C4.1001 3.30002 4.9001 3.90003 5.6001 4.50003C6.7001 5.50003 7.40007 6.60002 7.70007 7.90002C8.00007 9.10002 8.60005 11.1 9.30005 12.6C9.70005 13.5 10 14.3 10.5 15.2C10.8 15.7 11.1 16.1 11.4 16.6C12 17.5 12.8001 18.2 13.7001 18.9C14.9001 19.8 15.9 20.4 17.3 20.9C19 21.6 21.4 22 25.4 22C29.4 22 25.6001 22 25.7001 22C25.7001 22 25.8 22 25.9 22H57.7001C57.7001 22 57.8 22 57.9 22C58 22 58.1001 22 58.2001 22C62.2001 22 64.6 21.5 66.3 20.9C67.7001 20.5 68.7 19.8 69.9 18.9C70.9 18.3 71.6001 17.5 72.2001 16.6C72.5001 16.2 72.8001 15.7 73.1001 15.2C73.6001 14.3 73.9 13.5 74.3 12.6C75 11.1 75.6 9.10002 75.9 7.90002C76.2 6.70002 76.9 5.50003 78 4.50003C78.7 3.90003 79.5 3.30002 80.5 2.90002L81.1001 2.70001H41.7001H41.9Z" fill="#ADADAD"/>
</g>
<g style="mix-blend-mode:multiply" opacity="0.3">
<path d="M41.8 2.60001H2.6001L3.20007 2.80002C4.20007 3.20002 5.00007 3.80002 5.70007 4.40002C6.80007 5.40002 7.50005 6.60002 7.80005 7.80002C8.10005 9.00002 8.70002 11 9.40002 12.5C9.80002 13.4 10.1001 14.2 10.6001 15.1C10.9001 15.6 11.2 16 11.5 16.5C12.1 17.4 12.9 18.1 13.8 18.8C15 19.7 16 20.3 17.4 20.8C19.1 21.5 21.5 21.9 25.5 21.9C29.5 21.9 25.7 21.9 25.8 21.9C25.8 21.9 25.9 21.9 26 21.9H57.7001C57.7001 21.9 57.8 21.9 57.9 21.9C58 21.9 58.1001 21.9 58.2001 21.9C62.2001 21.9 64.6 21.4 66.3 20.8C67.7001 20.4 68.7 19.7 69.9 18.8C70.9 18.2 71.6001 17.4 72.2001 16.5C72.5001 16.1 72.8001 15.6 73.1001 15.1C73.6001 14.2 73.9 13.4 74.3 12.5C75 11 75.6 9.00002 75.9 7.80002C76.2 6.60002 76.9 5.40002 78 4.40002C78.7 3.80002 79.5 3.20002 80.5 2.80002L81.1001 2.60001H41.8Z" fill="#A9A9A8"/>
</g>
<g style="mix-blend-mode:multiply" opacity="0.3">
<path d="M41.8 2.50003H2.70007L3.30005 2.70001C4.30005 3.10001 5.10005 3.70002 5.80005 4.30002C6.90005 5.30002 7.60002 6.50001 7.90002 7.70001C8.20002 8.90001 8.8 10.9 9.5 12.4C9.9 13.3 10.2001 14.1 10.7001 15C11.0001 15.5 11.3001 15.9 11.6001 16.4C12.2001 17.3 13 18 13.9 18.7C15.1 19.6 16.1 20.2 17.5 20.7C19.2 21.4 21.6001 21.8 25.6001 21.8C29.6001 21.8 25.8 21.8 25.9 21.8C25.9 21.8 26.0001 21.8 26.1001 21.8H57.7001C57.7001 21.8 57.8 21.8 57.9 21.8C58 21.8 58.1001 21.8 58.2001 21.8C62.2001 21.8 64.5 21.3 66.3 20.7C67.7001 20.3 68.7 19.6 69.9 18.7C70.9 18.1 71.6001 17.3 72.2001 16.4C72.5001 16 72.8001 15.5 73.1001 15C73.6001 14.1 73.9 13.3 74.3 12.4C75 10.9 75.5 8.90001 75.8 7.70001C76.1001 6.50001 76.8 5.30002 77.9 4.30002C78.6 3.70002 79.4 3.10001 80.4 2.70001L81 2.50003H41.9H41.8Z" fill="#A5A5A4"/>
</g>
<g style="mix-blend-mode:multiply" opacity="0.3">
<path d="M41.8 2.40002H2.80005L3.40002 2.60001C4.40002 3.00001 5.20002 3.60001 5.90002 4.20001C7.00002 5.20001 7.7 6.40001 8 7.60001C8.3 8.80001 8.9 10.8 9.5 12.3C9.8 13.2 10.2001 14 10.7001 14.9C11.0001 15.4 11.3001 15.8 11.6001 16.3C12.2001 17.2 12.9 17.9 13.9 18.6C15.1 19.5 16.1 20.1 17.5 20.6C19.2 21.3 21.6 21.7 25.5 21.7C29.4 21.7 25.7 21.7 25.8 21.7C25.8 21.7 25.9 21.7 26 21.7H57.5C57.5 21.7 57.6001 21.7 57.7001 21.7C57.8001 21.7 57.9 21.7 58 21.7C61.9 21.7 64.3 21.2 66 20.6C67.4 20.2 68.4001 19.5 69.6001 18.6C70.6001 18 71.3 17.2 71.9 16.3C72.2 15.9 72.5 15.4 72.8 14.9C73.3 14 73.6 13.2 74 12.3C74.7 10.8 75.2 8.80001 75.5 7.60001C75.8 6.40001 76.5001 5.20001 77.6001 4.20001C78.3001 3.60001 79.1001 3.00001 80.1001 2.60001L80.7001 2.40002H41.7001H41.8Z" fill="#A1A1A0"/>
</g>
<g style="mix-blend-mode:multiply" opacity="0.3">
<path d="M41.8 2.30002H3L3.6001 2.50003C4.6001 2.90003 5.4001 3.50001 6.1001 4.10001C7.2001 5.10001 7.80007 6.30003 8.20007 7.50003C8.50007 8.70003 9.10007 10.7 9.70007 12.2C10.0001 13.1 10.4 13.9 10.9 14.8C11.2 15.3 11.4 15.7 11.8 16.2C12.4 17.1 13.1001 17.8 14.1001 18.5C15.3001 19.4 16.3001 20 17.6001 20.5C19.3001 21.2 21.7001 21.6 25.6001 21.6C29.5001 21.6 25.8 21.6 25.9 21.6C25.9 21.6 26.0001 21.6 26.1001 21.6H57.5C57.5 21.6 57.6001 21.6 57.7001 21.6C57.8001 21.6 57.9 21.6 58 21.6C61.9 21.6 64.3 21.1 66 20.5C67.4 20.1 68.4 19.4 69.5 18.5C70.5 17.9 71.2001 17.1 71.8 16.2C72.1001 15.8 72.4001 15.3 72.7001 14.8C73.2001 13.9 73.5 13.1 73.9 12.2C74.6 10.7 75.1 8.70003 75.4 7.50003C75.7 6.30003 76.4 5.10001 77.5 4.10001C78.2 3.50001 79 2.90003 80 2.50003L80.6001 2.30002H41.7001H41.8Z" fill="#9D9D9C"/>
</g>
<g style="mix-blend-mode:multiply" opacity="0.3">
<path d="M41.8 2.30002H3.1001L3.70007 2.50003C4.70007 2.90003 5.50007 3.50001 6.20007 4.10001C7.30007 5.10001 7.90005 6.30003 8.30005 7.50003C8.60005 8.70003 9.20005 10.7 9.80005 12.2C10.1 13.1 10.5 13.9 11 14.8C11.3 15.3 11.5 15.7 11.9 16.2C12.5 17.1 13.2001 17.8 14.2001 18.5C15.4001 19.4 16.3001 20 17.7001 20.5C19.4001 21.2 21.8001 21.6 25.7001 21.6C29.6001 21.6 25.9 21.6 26 21.6C26 21.6 26.1001 21.6 26.2001 21.6H57.5C57.5 21.6 57.6001 21.6 57.7001 21.6C57.8001 21.6 57.9 21.6 58 21.6C61.9 21.6 64.3 21.1 66 20.5C67.4 20.1 68.4 19.4 69.5 18.5C70.5 17.9 71.2001 17.1 71.8 16.2C72.1001 15.8 72.4001 15.3 72.7001 14.8C73.2001 13.9 73.5 13.1 73.9 12.2C74.6 10.7 75.1 8.70003 75.4 7.50003C75.7 6.30003 76.4 5.10001 77.5 4.10001C78.2 3.50001 79 2.90003 80 2.50003L80.6001 2.30002H41.9H41.8Z" fill="#999998"/>
</g>
<g style="mix-blend-mode:multiply" opacity="0.3">
<path d="M41.8 2.20001H3.20007L3.80005 2.40002C4.80005 2.80002 5.60005 3.40003 6.30005 4.00003C7.30005 5.00003 8.00002 6.20002 8.40002 7.40002C8.70002 8.60002 9.30002 10.6 9.90002 12.1C10.2 13 10.6001 13.8 11.1001 14.7C11.3001 15.2 11.6 15.6 12 16.1C12.6 17 13.3 17.7 14.3 18.4C15.5 19.3 16.4 19.9 17.8 20.4C19.5 21.1 21.9 21.5 25.8 21.5C29.7 21.5 26.0001 21.5 26.1001 21.5C26.1001 21.5 26.2 21.5 26.3 21.5H57.5C57.5 21.5 57.6001 21.5 57.7001 21.5C57.8001 21.5 57.9 21.5 58 21.5C61.9 21.5 64.3 21 66 20.4C67.4 20 68.4 19.3 69.5 18.4C70.5 17.8 71.2001 17 71.8 16.1C72.1001 15.7 72.4001 15.2 72.7001 14.7C73.2001 13.8 73.5 13 73.9 12.1C74.6 10.6 75.1 8.60002 75.4 7.40002C75.7 6.20002 76.4 5.00003 77.5 4.00003C78.2 3.40003 79 2.80002 80 2.40002L80.5 2.20001H41.9H41.8Z" fill="#949494"/>
</g>
<g style="mix-blend-mode:multiply" opacity="0.3">
<path d="M41.8 2.10001H3.30005L3.90002 2.30002C4.90002 2.70002 5.70002 3.30002 6.40002 3.90002C7.40002 4.90002 8.1 6.10002 8.5 7.30002C8.8 8.50002 9.4 10.5 10 12C10.3 12.9 10.7001 13.7 11.2001 14.6C11.4001 15.1 11.7001 15.5 12.1001 16C12.7001 16.9 13.4 17.6 14.4 18.3C15.6 19.2 16.5 19.8 17.9 20.3C19.6 21 21.9 21.4 25.8 21.4C29.7 21.4 26.0001 21.4 26.1001 21.4C26.1001 21.4 26.2 21.4 26.3 21.4H57.4C57.4 21.4 57.5001 21.4 57.6001 21.4C57.7001 21.4 57.8 21.4 57.9 21.4C61.8 21.4 64.1 20.9 65.8 20.3C67.2001 19.9 68.2001 19.2 69.3 18.3C70.3 17.7 71.0001 16.9 71.6001 16C71.9001 15.6 72.2 15.1 72.5 14.6C73 13.7 73.3001 12.9 73.7001 12C74.4001 10.5 74.9001 8.50002 75.2001 7.30002C75.5001 6.10002 76.2001 4.90002 77.2001 3.90002C77.9001 3.30002 78.7001 2.70002 79.7001 2.30002L80.2001 2.10001H41.7001H41.8Z" fill="#909090"/>
</g>
<g style="mix-blend-mode:multiply" opacity="0.3">
<path d="M41.8 2.00003H3.5L4.1001 2.20001C5.1001 2.60001 5.9001 3.20002 6.6001 3.80002C7.6001 4.80002 8.3001 6.00001 8.6001 7.20001C8.9001 8.40001 9.5001 10.4 10.1001 11.9C10.4001 12.8 10.8 13.6 11.3 14.5C11.5 15 11.8001 15.4 12.2001 15.9C12.8001 16.8 13.5 17.5 14.5 18.2C15.7 19.1 16.6 19.7 18 20.2C19.7 20.9 22 21.3 25.9 21.3C29.8 21.3 26.1001 21.3 26.2001 21.3C26.2001 21.3 26.3 21.3 26.4 21.3H57.4C57.4 21.3 57.5001 21.3 57.6001 21.3C57.7001 21.3 57.8 21.3 57.9 21.3C61.8 21.3 64.1 20.8 65.8 20.2C67.2001 19.8 68.1001 19.1 69.3 18.2C70.2001 17.6 71.0001 16.8 71.6001 15.9C71.9001 15.5 72.2 15 72.5 14.5C73 13.6 73.3001 12.8 73.7001 11.9C74.4001 10.4 74.9001 8.40001 75.2001 7.20001C75.5001 6.00001 76.2001 4.80002 77.2001 3.80002C77.9001 3.20002 78.7001 2.60001 79.7001 2.20001L80.2001 2.00003H41.8Z" fill="#8C8C8C"/>
</g>
<g style="mix-blend-mode:multiply" opacity="0.4">
<path d="M41.8 1.90002H3.6001L4.20007 2.10001C5.20007 2.50001 6.00007 3.10001 6.70007 3.70001C7.70007 4.70001 8.40007 5.90001 8.70007 7.10001C9.00007 8.30001 9.50007 10.3 10.2001 11.8C10.5001 12.7 10.9 13.5 11.4 14.4C11.6 14.9 11.9 15.3 12.3 15.8C12.9 16.7 13.6001 17.4 14.6001 18.1C15.7001 19 16.7001 19.6 18.1001 20.1C19.8001 20.8 22.1 21.2 26 21.2C29.9 21.2 26.2 21.2 26.3 21.2C26.3 21.2 26.4 21.2 26.5 21.2H57.4C57.4 21.2 57.5001 21.2 57.6001 21.2C57.7001 21.2 57.8 21.2 57.9 21.2C61.8 21.2 64.1 20.7 65.8 20.1C67.2001 19.7 68.1001 19 69.3 18.1C70.2001 17.5 71.0001 16.7 71.6001 15.8C71.9001 15.4 72.2 14.9 72.5 14.4C73 13.5 73.3001 12.7 73.7001 11.8C74.4001 10.3 74.9001 8.30001 75.2001 7.10001C75.5001 5.90001 76.2001 4.70001 77.2001 3.70001C77.9001 3.10001 78.7001 2.50001 79.7001 2.10001L80.2001 1.90002H42H41.8Z" fill="#888887"/>
</g>
<g style="mix-blend-mode:multiply" opacity="0.4">
<path d="M41.8 1.80002H3.70007L4.30005 2.00003C5.30005 2.40003 6.10005 3.00001 6.80005 3.60001C7.80005 4.60001 8.50005 5.80003 8.80005 7.00003C9.10005 8.20003 9.60005 10.2 10.3 11.7C10.6 12.6 11 13.4 11.5 14.3C11.7 14.8 12 15.2 12.4 15.7C13 16.6 13.7001 17.3 14.7001 18C15.8001 18.9 16.8001 19.5 18.2001 20C19.9001 20.7 22.2001 21.1 26.1001 21.1C30.0001 21.1 26.3 21.1 26.4 21.1C26.4 21.1 26.5001 21.1 26.6001 21.1H57.4C57.4 21.1 57.5001 21.1 57.6001 21.1C57.7001 21.1 57.8 21.1 57.9 21.1C61.8 21.1 64.1 20.6 65.8 20C67.2001 19.6 68.1001 18.9 69.3 18C70.2001 17.4 71.0001 16.6 71.6001 15.7C71.9001 15.3 72.2 14.8 72.5 14.3C73 13.4 73.3001 12.6 73.7001 11.7C74.4001 10.2 74.9001 8.20003 75.2001 7.00003C75.5001 5.80003 76.2001 4.60001 77.2001 3.60001C77.9001 3.00001 78.7001 2.40003 79.6001 2.00003L80.1001 1.80002H42H41.8Z" fill="#848483"/>
</g>
<g style="mix-blend-mode:multiply" opacity="0.4">
<path d="M41.8 1.70001H3.90002L4.5 1.90002C5.5 2.30002 6.30002 2.90003 6.90002 3.50003C7.90002 4.50003 8.60002 5.70002 8.90002 6.90002C9.20002 8.10002 9.70002 10.1 10.4 11.6C10.7 12.5 11.1001 13.3 11.6001 14.2C11.8001 14.7 12.1 15.1 12.5 15.6C13.1 16.5 13.8 17.2 14.8 17.9C15.9 18.8 16.9 19.5 18.3 19.9C20 20.6 22.3001 21 26.1001 21C29.9001 21 26.3 21 26.4 21C26.4 21 26.5001 21 26.6001 21H57.3C57.3 21 57.4 21 57.5 21C57.6 21 57.7001 21 57.8 21C61.6 21 64.0001 20.5 65.6001 19.9C67.0001 19.5 67.9001 18.8 69.1001 17.9C70.0001 17.3 70.8 16.5 71.4 15.6C71.7 15.2 72 14.7 72.3 14.2C72.8 13.3 73.1 12.5 73.5 11.6C74.2 10.1 74.7 8.10002 75 6.90002C75.3 5.70002 76 4.50003 77 3.50003C77.7 2.90003 78.5 2.30002 79.4 1.90002L79.9 1.70001H41.9H41.8Z" fill="#80807F"/>
</g>
<g style="mix-blend-mode:multiply" opacity="0.4">
<path d="M41.8 1.60001H4L4.5 1.80002C5.5 2.20002 6.30002 2.80002 6.90002 3.40002C7.90002 4.40002 8.60002 5.60002 8.90002 6.80002C9.20002 8.00002 9.70002 10 10.4 11.5C10.7 12.4 11.1 13.2 11.5 14.1C11.7 14.6 12 15 12.4 15.5C13 16.4 13.7001 17.1 14.6001 17.8C15.7001 18.7 16.7001 19.4 18.1001 19.8C19.8001 20.5 22.1 20.9 25.9 20.9C29.7 20.9 26.1001 20.9 26.2001 20.9C26.2001 20.9 26.3 20.9 26.4 20.9H57C57 20.9 57.1001 20.9 57.2001 20.9C57.3001 20.9 57.4 20.9 57.5 20.9C61.3 20.9 63.6 20.4 65.3 19.8C66.7001 19.4 67.6 18.7 68.8 17.8C69.7001 17.2 70.5 16.4 71 15.5C71.3 15.1 71.6 14.6 71.9 14.1C72.4 13.2 72.7 12.4 73 11.5C73.7 10 74.2 8.00002 74.5 6.80002C74.8 5.60002 75.5 4.40002 76.5 3.40002C77.2 2.80002 78 2.20002 78.9 1.80002L79.4 1.60001H41.6001H41.8Z" fill="#7C7C7B"/>
</g>
<g style="mix-blend-mode:multiply" opacity="0.4">
<path d="M41.8 1.50003H4.1001L4.6001 1.70001C5.6001 2.10001 6.4 2.70002 7 3.30002C8 4.30002 8.7 5.50001 9 6.70001C9.3 7.90001 9.8 9.90002 10.5 11.4C10.8 12.3 11.2001 13.1 11.6001 14C11.8001 14.5 12.1 14.9 12.5 15.4C13.1 16.3 13.8001 17 14.7001 17.7C15.8001 18.6 16.8001 19.3 18.1001 19.7C19.8001 20.4 22.1 20.8 25.9 20.8C29.7 20.8 26.1001 20.8 26.2001 20.8C26.2001 20.8 26.3 20.8 26.4 20.8H56.9C56.9 20.8 57.0001 20.8 57.1001 20.8C57.2001 20.8 57.3 20.8 57.4 20.8C61.2 20.8 63.5001 20.3 65.2001 19.7C66.5001 19.3 67.5001 18.6 68.6001 17.7C69.5001 17.1 70.2001 16.3 70.8 15.4C71.1001 15 71.4001 14.5 71.7001 14C72.2001 13.1 72.5 12.3 72.8 11.4C73.5 9.90002 74 7.90001 74.3 6.70001C74.6001 5.50001 75.3 4.30002 76.3 3.30002C77 2.70002 77.8001 2.10001 78.7001 1.70001L79.2001 1.50003H41.5H41.8Z" fill="#787877"/>
</g>
<g style="mix-blend-mode:multiply" opacity="0.4">
<path d="M41.8 1.40002H4.20007L4.70007 1.60001C5.70007 2.00001 6.5001 2.60001 7.1001 3.20001C8.1001 4.20001 8.8001 5.40001 9.1001 6.60001C9.4001 7.80001 9.9001 9.80002 10.6001 11.3C10.9001 12.2 11.3001 13 11.7001 13.9C11.9001 14.4 12.2001 14.8 12.6001 15.3C13.2001 16.2 13.9 16.9 14.8 17.6C15.9 18.5 16.9001 19.2 18.2001 19.6C19.9001 20.3 22.2 20.7 26 20.7C29.8 20.7 26.2 20.7 26.3 20.7C26.3 20.7 26.4 20.7 26.5 20.7H56.9C56.9 20.7 57.0001 20.7 57.1001 20.7C57.2001 20.7 57.3 20.7 57.4 20.7C61.2 20.7 63.5001 20.2 65.2001 19.6C66.5001 19.2 67.5001 18.5 68.6001 17.6C69.5001 17 70.2001 16.2 70.8 15.3C71.1001 14.9 71.4001 14.4 71.7001 13.9C72.2001 13 72.5 12.2 72.8 11.3C73.5 9.80002 74 7.80001 74.3 6.60001C74.6001 5.40001 75.3 4.20001 76.3 3.20001C77 2.60001 77.8001 2.00001 78.7001 1.60001L79.2001 1.40002H41.6001H41.8Z" fill="#747473"/>
</g>
<g style="mix-blend-mode:multiply" opacity="0.4">
<path d="M41.8 1.30002H4.40002L4.90002 1.50003C5.90002 1.90003 6.60005 2.50001 7.30005 3.10001C8.30005 4.10001 9.00005 5.30003 9.30005 6.50003C9.60005 7.70003 10.1 9.70001 10.8 11.2C11.1 12.1 11.5 12.9 11.9 13.8C12.1 14.3 12.4 14.7 12.8 15.2C13.4 16.1 14.1 16.8 15 17.5C16.1 18.4 17.1 19.1 18.4 19.5C20.1 20.2 22.3001 20.6 26.1001 20.6C29.9001 20.6 26.3 20.6 26.4 20.6C26.4 20.6 26.5001 20.6 26.6001 20.6H56.9C56.9 20.6 57.0001 20.6 57.1001 20.6C57.2001 20.6 57.3 20.6 57.4 20.6C61.2 20.6 63.5001 20.1 65.1001 19.5C66.4001 19.1 67.4 18.4 68.5 17.5C69.4 16.9 70.1001 16.1 70.7001 15.2C71.0001 14.8 71.3001 14.3 71.6001 13.8C72.1001 12.9 72.4001 12.1 72.7001 11.2C73.4001 9.70001 73.9001 7.70003 74.2001 6.50003C74.5001 5.30003 75.2001 4.10001 76.2001 3.10001C76.9001 2.50001 77.7001 1.90003 78.6001 1.50003L79.1001 1.30002H41.6001H41.8Z" fill="#70706F"/>
</g>
<g style="mix-blend-mode:multiply" opacity="0.4">
<path d="M41.8 1.20001H4.5L5 1.40002C5.9 1.80002 6.70002 2.40003 7.40002 3.00003C8.40002 4.00003 9.10002 5.20002 9.40002 6.40002C9.70002 7.60002 10.2 9.60001 10.9 11.1C11.2 12 11.6 12.8 12 13.7C12.2 14.2 12.5 14.6 12.8 15.1C13.4 16 14.1 16.7 15 17.4C16.1 18.3 17.1 19 18.4 19.4C20 20.1 22.3001 20.5 26.1001 20.5C29.9001 20.5 26.3 20.5 26.4 20.5C26.4 20.5 26.5001 20.5 26.6001 20.5H56.8C56.8 20.5 56.9 20.5 57 20.5C57.1 20.5 57.2001 20.5 57.3 20.5C61.1 20.5 63.3 20 65 19.4C66.3 19 67.3 18.3 68.4 17.4C69.3 16.8 70.0001 16 70.6001 15.1C70.9001 14.7 71.2 14.2 71.4 13.7C71.9 12.8 72.2 12 72.5 11.1C73.2 9.60001 73.7 7.60002 74 6.40002C74.3 5.10002 75 4.00003 76 3.00003C76.7 2.40003 77.4 1.80002 78.4 1.40002L78.9 1.20001H41.6001H41.8Z" fill="#6B6B6B"/>
</g>
<g style="mix-blend-mode:multiply" opacity="0.5">
<path d="M41.8 1.10001H4.6001L5.1001 1.30002C6.0001 1.70002 6.8 2.30002 7.5 2.90002C8.5 3.90002 9.2 5.10002 9.5 6.30002C9.8 7.50002 10.3 9.50003 11 11C11.3 11.9 11.7001 12.7 12.1001 13.6C12.3001 14.1 12.6 14.5 12.9 15C13.5 15.9 14.2001 16.6 15.1001 17.3C16.2001 18.2 17.2 18.9 18.5 19.3C20.1 20 22.4001 20.4 26.2001 20.4C30.0001 20.4 26.4 20.4 26.5 20.4C26.5 20.4 26.6001 20.4 26.7001 20.4H56.8C56.8 20.4 56.9 20.4 57 20.4C57.1 20.4 57.2001 20.4 57.3 20.4C61.1 20.4 63.3 19.9 65 19.3C66.3 18.9 67.3 18.2 68.4 17.3C69.3 16.7 70.0001 15.9 70.6001 15C70.9001 14.6 71.2 14.1 71.4 13.6C71.9 12.7 72.2 11.9 72.5 11C73.1 9.50003 73.7 7.50002 74 6.30002C74.3 5.00002 75 3.90002 76 2.90002C76.7 2.30002 77.4 1.70002 78.4 1.30002L78.9 1.10001H41.7001H41.8Z" fill="#676766"/>
</g>
<g style="mix-blend-mode:multiply" opacity="0.5">
<path d="M41.8 1.00003H4.80005L5.30005 1.20001C6.20005 1.60001 7.00007 2.20002 7.70007 2.80002C8.70007 3.80002 9.40007 5.00001 9.70007 6.20001C10.0001 7.40001 10.5001 9.40002 11.2001 10.9C11.5001 11.8 11.9 12.6 12.3 13.5C12.5 14 12.8001 14.4 13.1001 14.9C13.7001 15.8 14.4 16.6 15.3 17.2C16.4 18.1 17.4001 18.8 18.7001 19.2C20.3001 19.9 22.6 20.3 26.3 20.3C30 20.3 26.5001 20.3 26.6001 20.3C26.6001 20.3 26.7 20.3 26.8 20.3H56.8C56.8 20.3 56.9 20.3 57 20.3C57.1 20.3 57.2001 20.3 57.3 20.3C61 20.3 63.3 19.8 64.9 19.2C66.2 18.8 67.2001 18.1 68.3 17.2C69.2001 16.6 69.9 15.8 70.5 14.9C70.8 14.5 71.1001 14 71.3 13.5C71.8 12.6 72.1 11.8 72.4 10.9C73 9.40002 73.6 7.40001 73.9 6.20001C74.2 4.90001 74.9 3.80002 75.9 2.80002C76.6 2.20002 77.3 1.60001 78.3 1.20001L78.8 1.00003H41.7001H41.8Z" fill="#636362"/>
</g>
<g style="mix-blend-mode:multiply" opacity="0.5">
<path d="M41.8 0.900024H4.90002L5.40002 1.10001C6.30002 1.50001 7.10005 2.10001 7.80005 2.70001C8.80005 3.70001 9.50005 4.90001 9.80005 6.10001C10.1 7.30001 10.6 9.30002 11.3 10.8C11.6 11.7 12 12.5 12.4 13.4C12.6 13.9 12.9001 14.3 13.2001 14.8C13.8001 15.7 14.5 16.5 15.4 17.1C16.5 18 17.4 18.7 18.8 19.1C20.4 19.8 22.7 20.2 26.4 20.2C30.1 20.2 26.6001 20.2 26.7001 20.2C26.7001 20.2 26.8 20.2 26.9 20.2H56.8C56.8 20.2 56.9 20.2 57 20.2C57.1 20.2 57.2001 20.2 57.3 20.2C61 20.2 63.3 19.7 64.9 19.1C66.2 18.7 67.2001 18 68.3 17.1C69.2001 16.5 69.9 15.7 70.5 14.8C70.8 14.4 71.1001 13.9 71.3 13.4C71.8 12.5 72.1 11.7 72.4 10.8C73 9.30002 73.6 7.30001 73.9 6.10001C74.2 4.80001 74.9 3.70001 75.9 2.70001C76.6 2.10001 77.3 1.50001 78.3 1.10001L78.8 0.900024H41.9H41.8Z" fill="#5F5F5E"/>
</g>
<g style="mix-blend-mode:multiply" opacity="0.5">
<path d="M41.8 0.800018H5L5.5 1.00003C6.4 1.40003 7.20002 2.00001 7.90002 2.60001C8.90002 3.60001 9.60002 4.80003 9.90002 6.00003C10.2 7.20003 10.7 9.20001 11.4 10.7C11.7 11.6 12.1 12.4 12.5 13.3C12.7 13.8 13 14.2 13.3 14.7C13.9 15.6 14.6 16.4 15.5 17C16.6 17.9 17.5 18.6 18.9 19C20.5 19.7 22.8 20.1 26.5 20.1C30.2 20.1 26.7 20.1 26.8 20.1C26.8 20.1 26.9 20.1 27 20.1H56.8C56.8 20.1 56.9 20.1 57 20.1C57 20.1 57.2001 20.1 57.3 20.1C61 20.1 63.3 19.6 64.9 19C66.2 18.6 67.2001 17.9 68.3 17C69.2001 16.4 69.9 15.6 70.5 14.7C70.8 14.3 71.1001 13.8 71.3 13.3C71.8 12.4 72.1 11.6 72.4 10.7C73 9.20001 73.6 7.10003 73.9 6.00003C74.2 4.70003 74.9 3.60001 75.9 2.60001C76.5 2.00001 77.3 1.40003 78.3 1.00003L78.8 0.800018H42H41.8Z" fill="#5B5B5A"/>
</g>
<g style="mix-blend-mode:multiply" opacity="0.5">
<path d="M41.8 0.700012H5.1001L5.6001 0.900024C6.5001 1.30002 7.3 1.90003 8 2.50003C9 3.50003 9.7 4.70002 10 5.90002C10.3 7.10002 10.8 9.10001 11.5 10.6C11.8 11.5 12.2001 12.3 12.6001 13.2C12.8001 13.7 13.1 14.2 13.4 14.6C14 15.5 14.7001 16.3 15.6001 16.9C16.7001 17.8 17.6 18.5 18.9 18.9C20.5 19.6 22.8 20 26.5 20C30.2 20 26.7 20 26.8 20C26.8 20 26.9 20 27 20H56.7001C56.7001 20 56.8 20 56.9 20C56.9 20 57.1001 20 57.2001 20C60.9001 20 63.1 19.5 64.8 18.9C66.1 18.5 67.0001 17.8 68.1001 16.9C69.0001 16.3 69.7001 15.5 70.3 14.6C70.6001 14.2 70.9001 13.7 71.1001 13.2C71.6001 12.3 71.9001 11.5 72.2001 10.6C72.8001 9.10001 73.4001 7.00002 73.7001 5.90002C74.0001 4.60002 74.7001 3.50003 75.7001 2.50003C76.3001 1.90003 77.1001 1.30002 78.1001 0.900024L78.6001 0.700012H41.9H41.8Z" fill="#575756"/>
</g>
</g>
</svg>
