<svg width="129" height="20" viewBox="0 0 129 20" fill="none" xmlns="http://www.w3.org/2000/svg">
<path d="M37.2001 0.700012H0.5L1 0.900024C1.9 1.30002 2.70002 1.90003 3.40002 2.50003C4.40002 3.50003 5.10002 4.70002 5.40002 5.90002C5.70002 7.10002 6.20002 9.10001 6.90002 10.6C7.20002 11.5 7.6 12.3 8 13.2C8.2 13.7 8.50005 14.2 8.80005 14.6C9.40005 15.5 10.1 16.3 11 16.9C12.1 17.8 13 18.5 14.3 18.9C15.9 19.6 18.2 20 21.9 20C25.6 20 22.1001 20 22.2001 20C22.2001 20 22.3 20 22.4 20H106.8C106.8 20 106.9 20 107 20C107 20 107.2 20 107.3 20C111 20 113.2 19.5 114.9 18.9C116.2 18.5 117.1 17.8 118.2 16.9C119.1 16.3 119.8 15.5 120.4 14.6C120.7 14.2 121 13.7 121.2 13.2C121.7 12.3 122 11.5 122.3 10.6C122.9 9.10001 123.5 7.00002 123.8 5.90002C124.1 4.60002 124.8 3.50003 125.8 2.50003C126.4 1.90003 127.2 1.30002 128.2 0.900024L128.7 0.700012H37.3H37.2001Z" fill="#24A34B"/>
</svg>
