
<svg width="141" height="24" viewBox="0 0 141 24" fill="none" xmlns="http://www.w3.org/2000/svg">
<g opacity="0.23">
<g style="mix-blend-mode:multiply" opacity="0.1">
<path d="M42.4 3.80002H1.6001L2.20007 4.00003C3.20007 4.40003 4.10005 5.00001 4.80005 5.60001C5.90005 6.60001 6.6 7.70003 7 9.00003C7.3 10.1 7.9001 12.1 8.6001 13.7C9.0001 14.6 9.30005 15.4 9.80005 16.3C10.1 16.8 10.4001 17.2 10.7001 17.7C11.3001 18.6 12.1001 19.3 13.1001 19.9C14.3001 20.8 15.4 21.4 16.8 21.9C18.6 22.6 21.1001 23 25.2001 23C29.3001 23 25.4 23 25.5 23H25.7001H114.9H115.1C115.2 23 115.3 23 115.4 23C119.5 23 122 22.5 123.8 21.9C125.3 21.5 126.3 20.8 127.5 19.9C128.5 19.3 129.3 18.5 129.9 17.7C130.3 17.3 130.6 16.8 130.8 16.3C131.3 15.4 131.7 14.6 132 13.7C132.7 12.2 133.3 10.2 133.6 9.00003C133.9 7.80003 134.7 6.60001 135.8 5.60001C136.5 5.00001 137.4 4.40003 138.4 4.00003L139 3.80002H42H42.4Z" fill="#DADADA"/>
</g>
<g style="mix-blend-mode:multiply" opacity="0.1">
<path d="M42.4 3.70001H1.80005L2.40002 3.90002C3.40002 4.30002 4.3 4.90003 5 5.50003C6.1 6.50003 6.80007 7.60002 7.20007 8.90002C7.50007 10 8.10005 12 8.80005 13.6C9.20005 14.5 9.5 15.3 10 16.2C10.3 16.7 10.6 17.1 10.9 17.6C11.5 18.5 12.3 19.2 13.3 19.9C14.5 20.8 15.6 21.4 17 21.9C18.8 22.6 21.3 23 25.4 23C29.5 23 25.6001 23 25.7001 23H25.9H115H115.2C115.3 23 115.4 23 115.5 23C119.6 23 122.1 22.5 123.9 21.9C125.4 21.5 126.4 20.8 127.6 19.9C128.6 19.3 129.4 18.5 130 17.6C130.4 17.2 130.7 16.7 130.9 16.2C131.4 15.3 131.8 14.5 132.1 13.6C132.8 12.1 133.4 10.1 133.7 8.90002C134 7.70002 134.8 6.50003 135.9 5.50003C136.6 4.90003 137.5 4.30002 138.5 3.90002L139.1 3.70001H42.2001H42.4Z" fill="#D6D6D6"/>
</g>
<g style="mix-blend-mode:multiply" opacity="0.1">
<path d="M42.4 3.60001H1.90002L2.5 3.80002C3.5 4.20002 4.4001 4.80002 5.1001 5.40002C6.2001 6.40002 6.90005 7.50002 7.30005 8.80002C7.60005 10 8.20002 11.9 8.90002 13.5C9.30002 14.4 9.6001 15.2 10.1001 16.1C10.4001 16.6 10.7 17 11 17.5C11.6 18.4 12.4 19.1 13.4 19.8C14.6 20.7 15.6001 21.3 17.1001 21.8C18.9001 22.5 21.4 22.9 25.5 22.9C29.6 22.9 25.7 22.9 25.8 22.9H26H115H115.2C115.3 22.9 115.4 22.9 115.5 22.9C119.6 22.9 122.1 22.4 123.9 21.8C125.4 21.4 126.4 20.7 127.6 19.8C128.6 19.2 129.4 18.4 130 17.5C130.3 17.1 130.7 16.6 130.9 16.1C131.4 15.2 131.8 14.4 132.1 13.5C132.8 12 133.4 10 133.7 8.80002C134 7.60002 134.8 6.40002 135.9 5.40002C136.6 4.80002 137.5 4.20002 138.5 3.80002L139.1 3.60001H42.3H42.4Z" fill="#D2D2D2"/>
</g>
<g style="mix-blend-mode:multiply" opacity="0.1">
<path d="M42.4 3.50003H2L2.6001 3.70001C3.6001 4.10001 4.50007 4.70002 5.20007 5.30002C6.30007 6.30002 7.00002 7.40001 7.40002 8.70001C7.70002 9.90001 8.3 11.8 9 13.4C9.4 14.3 9.70007 15.1 10.2001 16C10.5001 16.5 10.8001 16.9 11.1001 17.4C11.7001 18.3 12.5 19 13.5 19.7C14.7 20.6 15.7001 21.2 17.2001 21.7C19.0001 22.4 21.4 22.8 25.5 22.8C29.6 22.8 25.7 22.8 25.8 22.8H26H114.9H115.1C115.2 22.8 115.3 22.8 115.4 22.8C119.5 22.8 121.9 22.3 123.7 21.7C125.1 21.3 126.2 20.6 127.4 19.7C128.4 19.1 129.2 18.3 129.8 17.4C130.1 17 130.5 16.5 130.7 16C131.2 15.1 131.6 14.3 131.9 13.4C132.6 11.9 133.2 9.90001 133.5 8.70001C133.8 7.50001 134.6 6.30002 135.7 5.30002C136.4 4.70002 137.3 4.10001 138.3 3.70001L138.9 3.50003H42.2001H42.4Z" fill="#CECECE"/>
</g>
<g style="mix-blend-mode:multiply" opacity="0.2">
<path d="M42.3 3.40002H2L2.6001 3.60001C3.6001 4.00001 4.50007 4.60001 5.20007 5.20001C6.30007 6.20001 7.00005 7.30001 7.30005 8.60001C7.60005 9.80001 8.20002 11.8 8.90002 13.3C9.30002 14.2 9.6001 15 10.1001 15.9C10.4001 16.4 10.7 16.8 11 17.3C11.6 18.2 12.4 18.9 13.4 19.6C14.6 20.5 15.6001 21.1 17.1001 21.6C18.9001 22.3 21.3 22.7 25.4 22.7C29.5 22.7 25.6001 22.7 25.7001 22.7H25.9H114.7C114.7 22.7 114.8 22.7 114.9 22.7C115 22.7 115.1 22.7 115.2 22.7C119.3 22.7 121.7 22.2 123.5 21.6C124.9 21.2 126 20.5 127.2 19.6C128.2 19 129 18.2 129.6 17.3C129.9 16.9 130.3 16.4 130.5 15.9C131 15 131.4 14.2 131.7 13.3C132.4 11.8 133 9.80001 133.3 8.60001C133.6 7.40001 134.3 6.20001 135.4 5.20001C136.1 4.60001 137 4.00001 138 3.60001L138.6 3.40002H42.1001H42.3Z" fill="#CACAC9"/>
</g>
<g style="mix-blend-mode:multiply" opacity="0.2">
<path d="M42.3 3.30002H2.20007L2.80005 3.50003C3.80005 3.90003 4.70002 4.50001 5.40002 5.10001C6.50002 6.10001 7.2 7.20003 7.5 8.50003C7.8 9.70003 8.4001 11.7 9.1001 13.2C9.5001 14.1 9.80005 14.9 10.3 15.8C10.6 16.3 10.9001 16.7 11.2001 17.2C11.8001 18.1 12.6001 18.8 13.6001 19.5C14.8001 20.4 15.8 21 17.3 21.5C19.1 22.2 21.5001 22.6 25.6001 22.6C29.7001 22.6 25.8 22.6 25.9 22.6H26.1001H114.8C114.8 22.6 114.9 22.6 115 22.6C115.1 22.6 115.2 22.6 115.3 22.6C119.4 22.6 121.8 22.1 123.6 21.5C125 21.1 126.1 20.4 127.3 19.5C128.3 18.9 129.1 18.1 129.7 17.2C130 16.8 130.4 16.3 130.6 15.8C131.1 14.9 131.5 14.1 131.8 13.2C132.5 11.7 133.1 9.70003 133.4 8.50003C133.7 7.30003 134.4 6.10001 135.5 5.10001C136.2 4.50001 137.1 3.90003 138.1 3.50003L138.7 3.30002H42.3Z" fill="#C6C6C5"/>
</g>
<g style="mix-blend-mode:multiply" opacity="0.2">
<path d="M42.3 3.20001H2.30005L2.90002 3.40002C3.90002 3.80002 4.8 4.40003 5.5 5.00003C6.6 6.00003 7.3001 7.10002 7.6001 8.40002C7.9001 9.60002 8.50007 11.6 9.20007 13.1C9.60007 14 9.90002 14.8 10.4 15.7C10.7 16.2 11 16.6 11.3 17.1C11.9 18 12.7001 18.7 13.7001 19.4C14.9001 20.3 15.9 20.9 17.4 21.4C19.2 22.1 21.6001 22.5 25.7001 22.5C29.8001 22.5 25.9 22.5 26 22.5H26.2001H114.8C114.8 22.5 114.9 22.5 115 22.5C115.1 22.5 115.2 22.5 115.3 22.5C119.3 22.5 121.8 22 123.6 21.4C125 21 126 20.3 127.3 19.4C128.3 18.8 129 18 129.7 17.1C130 16.7 130.4 16.2 130.6 15.7C131.1 14.8 131.5 14 131.8 13.1C132.5 11.6 133.1 9.60002 133.4 8.40002C133.7 7.20002 134.4 6.00003 135.5 5.00003C136.2 4.40003 137.1 3.80002 138.1 3.40002L138.7 3.20001H42.4H42.3Z" fill="#C2C2C1"/>
</g>
<g style="mix-blend-mode:multiply" opacity="0.2">
<path d="M42.3 3.10001H2.40002L3 3.30002C4 3.70002 4.9001 4.30002 5.6001 4.90002C6.7001 5.90002 7.40007 7.00002 7.70007 8.30002C8.00007 9.50002 8.60005 11.5 9.30005 13C9.70005 13.9 10 14.7 10.5 15.6C10.8 16.1 11.1 16.5 11.4 17C12 17.9 12.8 18.6 13.8 19.3C15 20.2 16 20.8 17.4 21.3C19.2 22 21.6001 22.4 25.6001 22.4C29.6001 22.4 25.8 22.4 25.9 22.4H26.1001H114.6C114.6 22.4 114.7 22.4 114.8 22.4C114.9 22.4 115 22.4 115.1 22.4C119.1 22.4 121.6 21.9 123.3 21.3C124.7 20.9 125.7 20.2 126.9 19.3C127.9 18.7 128.6 17.9 129.3 17C129.6 16.6 129.9 16.1 130.2 15.6C130.7 14.7 131.1 13.9 131.4 13C132.1 11.5 132.7 9.50002 133 8.30002C133.3 7.10002 134 5.90002 135.1 4.90002C135.8 4.30002 136.6 3.70002 137.7 3.30002L138.3 3.10001H42.2001H42.3Z" fill="#BDBDBD"/>
</g>
<g style="mix-blend-mode:multiply" opacity="0.2">
<path d="M42.3 3.00003H2.6001L3.20007 3.20001C4.20007 3.60001 5.10005 4.20002 5.80005 4.80002C6.90005 5.80002 7.60002 6.90001 7.90002 8.20001C8.20002 9.40001 8.8 11.4 9.5 12.9C9.9 13.8 10.2001 14.6 10.7001 15.5C11.0001 16 11.3001 16.4 11.6001 16.9C12.2001 17.8 13 18.5 14 19.2C15.2 20.1 16.2001 20.7 17.6001 21.2C19.4001 21.9 21.8 22.3 25.8 22.3C29.8 22.3 26.0001 22.3 26.1001 22.3H26.3H114.7C114.7 22.3 114.8 22.3 114.9 22.3C115 22.3 115.1 22.3 115.2 22.3C119.2 22.3 121.6 21.8 123.4 21.2C124.8 20.8 125.8 20.1 127 19.2C128 18.6 128.7 17.8 129.4 16.9C129.7 16.5 130 16 130.3 15.5C130.8 14.6 131.1 13.8 131.5 12.9C132.2 11.4 132.8 9.40001 133.1 8.20001C133.4 7.00001 134.1 5.80002 135.2 4.80002C135.9 4.20002 136.7 3.60001 137.8 3.20001L138.4 3.00003H42.4H42.3Z" fill="#B9B9B9"/>
</g>
<g style="mix-blend-mode:multiply" opacity="0.2">
<path d="M42.3 2.90002H2.70007L3.30005 3.10001C4.30005 3.50001 5.20002 4.10001 5.90002 4.70001C7.00002 5.70001 7.7 6.80001 8 8.10001C8.3 9.30001 8.9001 11.3 9.6001 12.8C10.0001 13.7 10.3 14.5 10.8 15.4C11.1 15.9 11.4001 16.3 11.7001 16.8C12.3001 17.7 13.1 18.4 14 19.1C15.2 20 16.2001 20.6 17.6001 21.1C19.4001 21.8 21.8 22.2 25.8 22.2C29.8 22.2 26.0001 22.2 26.1001 22.2H26.3H114.6C114.6 22.2 114.7 22.2 114.8 22.2C114.9 22.2 115 22.2 115.1 22.2C119.1 22.2 121.5 21.7 123.3 21.1C124.7 20.7 125.7 20 126.9 19.1C127.9 18.5 128.6 17.7 129.2 16.8C129.5 16.4 129.8 15.9 130.1 15.4C130.6 14.5 130.9 13.7 131.3 12.8C132 11.3 132.6 9.30001 132.9 8.10001C133.2 6.90001 133.9 5.70001 135 4.70001C135.7 4.10001 136.5 3.50001 137.5 3.10001L138.1 2.90002H42.2001H42.3Z" fill="#B5B5B5"/>
</g>
<g style="mix-blend-mode:multiply" opacity="0.2">
<path d="M42.3 2.80002H2.80005L3.40002 3.00003C4.40002 3.40003 5.20002 4.00001 5.90002 4.60001C7.00002 5.60001 7.7 6.70003 8 8.00003C8.3 9.20003 8.9001 11.2 9.6001 12.7C10.0001 13.6 10.3 14.4 10.8 15.3C11.1 15.8 11.4001 16.2 11.7001 16.7C12.3001 17.6 13.1 18.3 14 19C15.2 19.9 16.2001 20.5 17.6001 21C19.3001 21.7 21.8001 22.1 25.7001 22.1C29.6001 22.1 25.9 22.1 26 22.1H26.2001H114.4C114.4 22.1 114.5 22.1 114.6 22.1C114.7 22.1 114.8 22.1 114.9 22.1C118.9 22.1 121.3 21.6 123 21C124.4 20.6 125.4 19.9 126.6 19C127.6 18.4 128.3 17.6 128.9 16.7C129.2 16.3 129.5 15.8 129.8 15.3C130.3 14.4 130.6 13.6 131 12.7C131.7 11.2 132.3 9.20003 132.6 8.00003C132.9 6.80003 133.6 5.60001 134.7 4.60001C135.4 4.00001 136.2 3.40003 137.2 3.00003L137.8 2.80002H42H42.3Z" fill="#B1B1B1"/>
</g>
<g style="mix-blend-mode:multiply" opacity="0.2">
<path d="M42.3 2.70001H2.90002L3.5 2.90002C4.5 3.30002 5.3 3.90003 6 4.50003C7.1 5.50003 7.8001 6.60002 8.1001 7.90002C8.4001 9.10002 9.00007 11.1 9.70007 12.6C10.1001 13.5 10.4 14.3 10.9 15.2C11.2 15.7 11.5 16.1 11.8 16.6C12.4 17.5 13.2001 18.2 14.1001 18.9C15.3001 19.8 16.3001 20.4 17.7001 20.9C19.4001 21.6 21.8 22 25.8 22C29.8 22 26.0001 22 26.1001 22C26.1001 22 26.2 22 26.3 22H114.4C114.4 22 114.5 22 114.6 22C114.7 22 114.8 22 114.9 22C118.9 22 121.3 21.5 123 20.9C124.4 20.5 125.4 19.8 126.6 18.9C127.6 18.3 128.3 17.5 128.9 16.6C129.2 16.2 129.5 15.7 129.8 15.2C130.3 14.3 130.6 13.5 131 12.6C131.7 11.1 132.3 9.10002 132.6 7.90002C132.9 6.70002 133.6 5.50003 134.7 4.50003C135.4 3.90003 136.2 3.30002 137.2 2.90002L137.8 2.70001H42.2001H42.3Z" fill="#ADADAD"/>
</g>
<g style="mix-blend-mode:multiply" opacity="0.3">
<path d="M42.3 2.60001H3.1001L3.70007 2.80002C4.70007 3.20002 5.50007 3.80002 6.20007 4.40002C7.30007 5.40002 8.00005 6.60002 8.30005 7.80002C8.60005 9.00002 9.20002 11 9.90002 12.5C10.3 13.4 10.6001 14.2 11.1001 15.1C11.4001 15.6 11.7 16 12 16.5C12.6 17.4 13.4 18.1 14.3 18.8C15.5 19.7 16.5 20.3 17.9 20.8C19.6 21.5 22 21.9 26 21.9C30 21.9 26.2 21.9 26.3 21.9C26.3 21.9 26.4 21.9 26.5 21.9H114.5C114.5 21.9 114.6 21.9 114.7 21.9C114.8 21.9 114.9 21.9 115 21.9C119 21.9 121.4 21.4 123.1 20.8C124.5 20.4 125.5 19.7 126.7 18.8C127.7 18.2 128.4 17.4 129 16.5C129.3 16.1 129.6 15.6 129.9 15.1C130.4 14.2 130.7 13.4 131.1 12.5C131.8 11 132.4 9.00002 132.7 7.80002C133 6.60002 133.7 5.40002 134.8 4.40002C135.5 3.80002 136.3 3.20002 137.3 2.80002L137.9 2.60001H42.4H42.3Z" fill="#A9A9A8"/>
</g>
<g style="mix-blend-mode:multiply" opacity="0.3">
<path d="M42.3 2.50003H3.20007L3.80005 2.70001C4.80005 3.10001 5.60005 3.70002 6.30005 4.30002C7.40005 5.30002 8.10002 6.50001 8.40002 7.70001C8.70002 8.90001 9.3 10.9 10 12.4C10.4 13.3 10.7001 14.1 11.2001 15C11.5001 15.5 11.8001 15.9 12.1001 16.4C12.7001 17.3 13.5 18 14.4 18.7C15.6 19.6 16.6 20.2 18 20.7C19.7 21.4 22.1001 21.8 26.1001 21.8C30.1001 21.8 26.3 21.8 26.4 21.8C26.4 21.8 26.5001 21.8 26.6001 21.8H114.5C114.5 21.8 114.6 21.8 114.7 21.8C114.8 21.8 114.9 21.8 115 21.8C119 21.8 121.3 21.3 123.1 20.7C124.5 20.3 125.5 19.6 126.7 18.7C127.7 18.1 128.4 17.3 129 16.4C129.3 16 129.6 15.5 129.9 15C130.4 14.1 130.7 13.3 131.1 12.4C131.8 10.9 132.3 8.90001 132.6 7.70001C132.9 6.50001 133.6 5.30002 134.7 4.30002C135.4 3.70002 136.2 3.10001 137.2 2.70001L137.8 2.50003H42.4H42.3Z" fill="#A5A5A4"/>
</g>
<g style="mix-blend-mode:multiply" opacity="0.3">
<path d="M42.3 2.40002H3.30005L3.90002 2.60001C4.90002 3.00001 5.70002 3.60001 6.40002 4.20001C7.50002 5.20001 8.2 6.40001 8.5 7.60001C8.8 8.80001 9.4 10.8 10 12.3C10.3 13.2 10.7001 14 11.2001 14.9C11.5001 15.4 11.8001 15.8 12.1001 16.3C12.7001 17.2 13.4 17.9 14.4 18.6C15.6 19.5 16.6 20.1 18 20.6C19.7 21.3 22.1 21.7 26 21.7C29.9 21.7 26.2 21.7 26.3 21.7C26.3 21.7 26.4 21.7 26.5 21.7H114.3C114.3 21.7 114.4 21.7 114.5 21.7C114.6 21.7 114.7 21.7 114.8 21.7C118.7 21.7 121.1 21.2 122.8 20.6C124.2 20.2 125.2 19.5 126.4 18.6C127.4 18 128.1 17.2 128.7 16.3C129 15.9 129.3 15.4 129.6 14.9C130.1 14 130.4 13.2 130.8 12.3C131.5 10.8 132 8.80001 132.3 7.60001C132.6 6.40001 133.3 5.20001 134.4 4.20001C135.1 3.60001 135.9 3.00001 136.9 2.60001L137.5 2.40002H42.3Z" fill="#A1A1A0"/>
</g>
<g style="mix-blend-mode:multiply" opacity="0.3">
<path d="M42.3 2.30002H3.5L4.1001 2.50003C5.1001 2.90003 5.9001 3.50001 6.6001 4.10001C7.7001 5.10001 8.30007 6.30003 8.70007 7.50003C9.00007 8.70003 9.60007 10.7 10.2001 12.2C10.5001 13.1 10.9 13.9 11.4 14.8C11.7 15.3 11.9 15.7 12.3 16.2C12.9 17.1 13.6001 17.8 14.6001 18.5C15.8001 19.4 16.8001 20 18.1001 20.5C19.8001 21.2 22.2001 21.6 26.1001 21.6C30.0001 21.6 26.3 21.6 26.4 21.6C26.4 21.6 26.5001 21.6 26.6001 21.6H114.3C114.3 21.6 114.4 21.6 114.5 21.6C114.6 21.6 114.7 21.6 114.8 21.6C118.7 21.6 121.1 21.1 122.8 20.5C124.2 20.1 125.2 19.4 126.3 18.5C127.3 17.9 128 17.1 128.6 16.2C128.9 15.8 129.2 15.3 129.5 14.8C130 13.9 130.3 13.1 130.7 12.2C131.4 10.7 131.9 8.70003 132.2 7.50003C132.5 6.30003 133.2 5.10001 134.3 4.10001C135 3.50001 135.8 2.90003 136.8 2.50003L137.4 2.30002H42.3Z" fill="#9D9D9C"/>
</g>
<g style="mix-blend-mode:multiply" opacity="0.3">
<path d="M42.3 2.30002H3.6001L4.20007 2.50003C5.20007 2.90003 6.00007 3.50001 6.70007 4.10001C7.80007 5.10001 8.40005 6.30003 8.80005 7.50003C9.10005 8.70003 9.70005 10.7 10.3 12.2C10.6 13.1 11 13.9 11.5 14.8C11.8 15.3 12 15.7 12.4 16.2C13 17.1 13.7001 17.8 14.7001 18.5C15.9001 19.4 16.8001 20 18.2001 20.5C19.9001 21.2 22.3001 21.6 26.2001 21.6C30.1001 21.6 26.4 21.6 26.5 21.6C26.5 21.6 26.6001 21.6 26.7001 21.6H114.3C114.3 21.6 114.4 21.6 114.5 21.6C114.6 21.6 114.7 21.6 114.8 21.6C118.7 21.6 121.1 21.1 122.8 20.5C124.2 20.1 125.2 19.4 126.3 18.5C127.3 17.9 128 17.1 128.6 16.2C128.9 15.8 129.2 15.3 129.5 14.8C130 13.9 130.3 13.1 130.7 12.2C131.4 10.7 131.9 8.70003 132.2 7.50003C132.5 6.30003 133.2 5.10001 134.3 4.10001C135 3.50001 135.8 2.90003 136.8 2.50003L137.4 2.30002H42.4H42.3Z" fill="#999998"/>
</g>
<g style="mix-blend-mode:multiply" opacity="0.3">
<path d="M42.3 2.20001H3.70007L4.30005 2.40002C5.30005 2.80002 6.10005 3.40003 6.80005 4.00003C7.80005 5.00003 8.50002 6.20002 8.90002 7.40002C9.20002 8.60002 9.80002 10.6 10.4 12.1C10.7 13 11.1001 13.8 11.6001 14.7C11.8001 15.2 12.1 15.6 12.5 16.1C13.1 17 13.8 17.7 14.8 18.4C16 19.3 16.9 19.9 18.3 20.4C20 21.1 22.4 21.5 26.3 21.5C30.2 21.5 26.5001 21.5 26.6001 21.5C26.6001 21.5 26.7 21.5 26.8 21.5H114.3C114.3 21.5 114.4 21.5 114.5 21.5C114.6 21.5 114.7 21.5 114.8 21.5C118.7 21.5 121.1 21 122.8 20.4C124.2 20 125.2 19.3 126.3 18.4C127.3 17.8 128 17 128.6 16.1C128.9 15.7 129.2 15.2 129.5 14.7C130 13.8 130.3 13 130.7 12.1C131.4 10.6 131.9 8.60002 132.2 7.40002C132.5 6.20002 133.2 5.00003 134.3 4.00003C135 3.40003 135.8 2.80002 136.8 2.40002L137.3 2.20001H42.4H42.3Z" fill="#949494"/>
</g>
<g style="mix-blend-mode:multiply" opacity="0.3">
<path d="M42.3 2.10001H3.80005L4.40002 2.30002C5.40002 2.70002 6.20002 3.30002 6.90002 3.90002C7.90002 4.90002 8.6 6.10002 9 7.30002C9.3 8.50002 9.9 10.5 10.5 12C10.8 12.9 11.2001 13.7 11.7001 14.6C11.9001 15.1 12.2001 15.5 12.6001 16C13.2001 16.9 13.9 17.6 14.9 18.3C16.1 19.2 17 19.8 18.4 20.3C20.1 21 22.4 21.4 26.3 21.4C30.2 21.4 26.5001 21.4 26.6001 21.4C26.6001 21.4 26.7 21.4 26.8 21.4H114.2C114.2 21.4 114.3 21.4 114.4 21.4C114.5 21.4 114.6 21.4 114.7 21.4C118.6 21.4 120.9 20.9 122.6 20.3C124 19.9 125 19.2 126.1 18.3C127.1 17.7 127.8 16.9 128.4 16C128.7 15.6 129 15.1 129.3 14.6C129.8 13.7 130.1 12.9 130.5 12C131.2 10.5 131.7 8.50002 132 7.30002C132.3 6.10002 133 4.90002 134 3.90002C134.7 3.30002 135.5 2.70002 136.5 2.30002L137 2.10001H42.3Z" fill="#909090"/>
</g>
<g style="mix-blend-mode:multiply" opacity="0.3">
<path d="M42.3 2.00003H4L4.6001 2.20001C5.6001 2.60001 6.4001 3.20002 7.1001 3.80002C8.1001 4.80002 8.8001 6.00001 9.1001 7.20001C9.4001 8.40001 10.0001 10.4 10.6001 11.9C10.9001 12.8 11.3 13.6 11.8 14.5C12 15 12.3001 15.4 12.7001 15.9C13.3001 16.8 14 17.5 15 18.2C16.2 19.1 17.1 19.7 18.5 20.2C20.2 20.9 22.5 21.3 26.4 21.3C30.3 21.3 26.6001 21.3 26.7001 21.3C26.7001 21.3 26.8 21.3 26.9 21.3H114.2C114.2 21.3 114.3 21.3 114.4 21.3C114.5 21.3 114.6 21.3 114.7 21.3C118.6 21.3 120.9 20.8 122.6 20.2C124 19.8 124.9 19.1 126.1 18.2C127 17.6 127.8 16.8 128.4 15.9C128.7 15.5 129 15 129.3 14.5C129.8 13.6 130.1 12.8 130.5 11.9C131.2 10.4 131.7 8.40001 132 7.20001C132.3 6.00001 133 4.80002 134 3.80002C134.7 3.20002 135.5 2.60001 136.5 2.20001L137 2.00003H42.4H42.3Z" fill="#8C8C8C"/>
</g>
<g style="mix-blend-mode:multiply" opacity="0.4">
<path d="M42.3 1.90002H4.1001L4.70007 2.10001C5.70007 2.50001 6.50007 3.10001 7.20007 3.70001C8.20007 4.70001 8.90007 5.90001 9.20007 7.10001C9.50007 8.30001 10.0001 10.3 10.7001 11.8C11.0001 12.7 11.4 13.5 11.9 14.4C12.1 14.9 12.4 15.3 12.8 15.8C13.4 16.7 14.1001 17.4 15.1001 18.1C16.2001 19 17.2001 19.6 18.6001 20.1C20.3001 20.8 22.6 21.2 26.5 21.2C30.4 21.2 26.7 21.2 26.8 21.2C26.8 21.2 26.9 21.2 27 21.2H114.2C114.2 21.2 114.3 21.2 114.4 21.2C114.5 21.2 114.6 21.2 114.7 21.2C118.6 21.2 120.9 20.7 122.6 20.1C124 19.7 124.9 19 126.1 18.1C127 17.5 127.8 16.7 128.4 15.8C128.7 15.4 129 14.9 129.3 14.4C129.8 13.5 130.1 12.7 130.5 11.8C131.2 10.3 131.7 8.30001 132 7.10001C132.3 5.90001 133 4.70001 134 3.70001C134.7 3.10001 135.5 2.50001 136.5 2.10001L137 1.90002H42.5H42.3Z" fill="#888887"/>
</g>
<g style="mix-blend-mode:multiply" opacity="0.4">
<path d="M42.3 1.80002H4.20007L4.80005 2.00003C5.80005 2.40003 6.60005 3.00001 7.30005 3.60001C8.30005 4.60001 9.00005 5.80003 9.30005 7.00003C9.60005 8.20003 10.1 10.2 10.8 11.7C11.1 12.6 11.5 13.4 12 14.3C12.2 14.8 12.5 15.2 12.9 15.7C13.5 16.6 14.2001 17.3 15.2001 18C16.3001 18.9 17.3001 19.5 18.7001 20C20.4001 20.7 22.7001 21.1 26.6001 21.1C30.5001 21.1 26.8 21.1 26.9 21.1C26.9 21.1 27.0001 21.1 27.1001 21.1H114.2C114.2 21.1 114.3 21.1 114.4 21.1C114.5 21.1 114.6 21.1 114.7 21.1C118.6 21.1 120.9 20.6 122.6 20C124 19.6 124.9 18.9 126.1 18C127 17.4 127.8 16.6 128.4 15.7C128.7 15.3 129 14.8 129.3 14.3C129.8 13.4 130.1 12.6 130.5 11.7C131.2 10.2 131.7 8.20003 132 7.00003C132.3 5.80003 133 4.60001 134 3.60001C134.7 3.00001 135.5 2.40003 136.4 2.00003L136.9 1.80002H42.6001H42.3Z" fill="#848483"/>
</g>
<g style="mix-blend-mode:multiply" opacity="0.4">
<path d="M42.3 1.70001H4.40002L5 1.90002C6 2.30002 6.80002 2.90003 7.40002 3.50003C8.40002 4.50003 9.10002 5.70002 9.40002 6.90002C9.70002 8.10002 10.2 10.1 10.9 11.6C11.2 12.5 11.6001 13.3 12.1001 14.2C12.3001 14.7 12.6 15.1 13 15.6C13.6 16.5 14.3 17.2 15.3 17.9C16.4 18.8 17.4 19.5 18.8 19.9C20.5 20.6 22.8001 21 26.6001 21C30.4001 21 26.8 21 26.9 21C26.9 21 27.0001 21 27.1001 21H114C114 21 114.1 21 114.2 21C114.3 21 114.4 21 114.5 21C118.3 21 120.7 20.5 122.3 19.9C123.7 19.5 124.6 18.8 125.8 17.9C126.7 17.3 127.5 16.5 128.1 15.6C128.4 15.2 128.7 14.7 129 14.2C129.5 13.3 129.8 12.5 130.2 11.6C130.9 10.1 131.4 8.10002 131.7 6.90002C132 5.70002 132.7 4.50003 133.7 3.50003C134.4 2.90003 135.2 2.30002 136.1 1.90002L136.6 1.70001H42.4H42.3Z" fill="#80807F"/>
</g>
<g style="mix-blend-mode:multiply" opacity="0.4">
<path d="M42.3 1.60001H4.5L5 1.80002C6 2.20002 6.80002 2.80002 7.40002 3.40002C8.40002 4.40002 9.10002 5.60002 9.40002 6.80002C9.70002 8.00002 10.2 10 10.9 11.5C11.2 12.4 11.6 13.2 12 14.1C12.2 14.6 12.5 15 12.9 15.5C13.5 16.4 14.2001 17.1 15.1001 17.8C16.2001 18.7 17.2001 19.4 18.6001 19.8C20.3001 20.5 22.6 20.9 26.4 20.9C30.2 20.9 26.6001 20.9 26.7001 20.9C26.7001 20.9 26.8 20.9 26.9 20.9H113.7C113.7 20.9 113.8 20.9 113.9 20.9C114 20.9 114.1 20.9 114.2 20.9C118 20.9 120.3 20.4 122 19.8C123.4 19.4 124.3 18.7 125.5 17.8C126.4 17.2 127.2 16.4 127.7 15.5C128 15.1 128.3 14.6 128.6 14.1C129.1 13.2 129.4 12.4 129.7 11.5C130.4 10 130.9 8.00002 131.2 6.80002C131.5 5.60002 132.2 4.40002 133.2 3.40002C133.9 2.80002 134.7 2.20002 135.6 1.80002L136.1 1.60001H42H42.3Z" fill="#7C7C7B"/>
</g>
<g style="mix-blend-mode:multiply" opacity="0.4">
<path d="M42.3 1.50003H4.6001L5.1001 1.70001C6.1001 2.10001 6.9 2.70002 7.5 3.30002C8.5 4.30002 9.2 5.50001 9.5 6.70001C9.8 7.90001 10.3 9.90002 11 11.4C11.3 12.3 11.7001 13.1 12.1001 14C12.3001 14.5 12.6 14.9 13 15.4C13.6 16.3 14.3001 17 15.2001 17.7C16.3001 18.6 17.3001 19.3 18.6001 19.7C20.3001 20.4 22.6 20.8 26.4 20.8C30.2 20.8 26.6001 20.8 26.7001 20.8C26.7001 20.8 26.8 20.8 26.9 20.8H113.6C113.6 20.8 113.7 20.8 113.8 20.8C113.9 20.8 114 20.8 114.1 20.8C117.9 20.8 120.2 20.3 121.9 19.7C123.2 19.3 124.2 18.6 125.3 17.7C126.2 17.1 126.9 16.3 127.5 15.4C127.8 15 128.1 14.5 128.4 14C128.9 13.1 129.2 12.3 129.5 11.4C130.2 9.90002 130.7 7.90001 131 6.70001C131.3 5.50001 132 4.30002 133 3.30002C133.7 2.70002 134.5 2.10001 135.4 1.70001L135.9 1.50003H41.9H42.3Z" fill="#787877"/>
</g>
<g style="mix-blend-mode:multiply" opacity="0.4">
<path d="M42.3 1.40002H4.70007L5.20007 1.60001C6.20007 2.00001 7.0001 2.60001 7.6001 3.20001C8.6001 4.20001 9.3001 5.40001 9.6001 6.60001C9.9001 7.80001 10.4001 9.80002 11.1001 11.3C11.4001 12.2 11.8001 13 12.2001 13.9C12.4001 14.4 12.7001 14.8 13.1001 15.3C13.7001 16.2 14.4 16.9 15.3 17.6C16.4 18.5 17.4001 19.2 18.7001 19.6C20.4001 20.3 22.7 20.7 26.5 20.7C30.3 20.7 26.7 20.7 26.8 20.7C26.8 20.7 26.9 20.7 27 20.7H113.6C113.6 20.7 113.7 20.7 113.8 20.7C113.9 20.7 114 20.7 114.1 20.7C117.9 20.7 120.2 20.2 121.9 19.6C123.2 19.2 124.2 18.5 125.3 17.6C126.2 17 126.9 16.2 127.5 15.3C127.8 14.9 128.1 14.4 128.4 13.9C128.9 13 129.2 12.2 129.5 11.3C130.2 9.80002 130.7 7.80001 131 6.60001C131.3 5.40001 132 4.20001 133 3.20001C133.7 2.60001 134.5 2.00001 135.4 1.60001L135.9 1.40002H42.1001H42.3Z" fill="#747473"/>
</g>
<g style="mix-blend-mode:multiply" opacity="0.4">
<path d="M42.3 1.30002H4.90002L5.40002 1.50003C6.40002 1.90003 7.10005 2.50001 7.80005 3.10001C8.80005 4.10001 9.50005 5.30003 9.80005 6.50003C10.1 7.70003 10.6 9.70001 11.3 11.2C11.6 12.1 12 12.9 12.4 13.8C12.6 14.3 12.9 14.7 13.3 15.2C13.9 16.1 14.6 16.8 15.5 17.5C16.6 18.4 17.6 19.1 18.9 19.5C20.6 20.2 22.8001 20.6 26.6001 20.6C30.4001 20.6 26.8 20.6 26.9 20.6C26.9 20.6 27.0001 20.6 27.1001 20.6H113.6C113.6 20.6 113.7 20.6 113.8 20.6C113.9 20.6 114 20.6 114.1 20.6C117.9 20.6 120.2 20.1 121.8 19.5C123.1 19.1 124.1 18.4 125.2 17.5C126.1 16.9 126.8 16.1 127.4 15.2C127.7 14.8 128 14.3 128.3 13.8C128.8 12.9 129.1 12.1 129.4 11.2C130.1 9.70001 130.6 7.70003 130.9 6.50003C131.2 5.30003 131.9 4.10001 132.9 3.10001C133.6 2.50001 134.4 1.90003 135.3 1.50003L135.8 1.30002H42.1001H42.3Z" fill="#70706F"/>
</g>
<g style="mix-blend-mode:multiply" opacity="0.4">
<path d="M42.3 1.20001H5L5.5 1.40002C6.4 1.80002 7.20002 2.40003 7.90002 3.00003C8.90002 4.00003 9.60002 5.20002 9.90002 6.40002C10.2 7.60002 10.7 9.60001 11.4 11.1C11.7 12 12.1 12.8 12.5 13.7C12.7 14.2 13 14.6 13.3 15.1C13.9 16 14.6 16.7 15.5 17.4C16.6 18.3 17.6 19 18.9 19.4C20.5 20.1 22.8001 20.5 26.6001 20.5C30.4001 20.5 26.8 20.5 26.9 20.5C26.9 20.5 27.0001 20.5 27.1001 20.5H113.5C113.5 20.5 113.6 20.5 113.7 20.5C113.8 20.5 113.9 20.5 114 20.5C117.8 20.5 120 20 121.7 19.4C123 19 124 18.3 125.1 17.4C126 16.8 126.7 16 127.3 15.1C127.6 14.7 127.9 14.2 128.1 13.7C128.6 12.8 128.9 12 129.2 11.1C129.9 9.60001 130.4 7.60002 130.7 6.40002C131 5.10002 131.7 4.00003 132.7 3.00003C133.4 2.40003 134.1 1.80002 135.1 1.40002L135.6 1.20001H42H42.3Z" fill="#6B6B6B"/>
</g>
<g style="mix-blend-mode:multiply" opacity="0.5">
<path d="M42.3 1.10001H5.1001L5.6001 1.30002C6.5001 1.70002 7.3 2.30002 8 2.90002C9 3.90002 9.7 5.10002 10 6.30002C10.3 7.50002 10.8 9.50003 11.5 11C11.8 11.9 12.2001 12.7 12.6001 13.6C12.8001 14.1 13.1 14.5 13.4 15C14 15.9 14.7001 16.6 15.6001 17.3C16.7001 18.2 17.7 18.9 19 19.3C20.6 20 22.9001 20.4 26.7001 20.4C30.5001 20.4 26.9 20.4 27 20.4C27 20.4 27.1001 20.4 27.2001 20.4H113.5C113.5 20.4 113.6 20.4 113.7 20.4C113.8 20.4 113.9 20.4 114 20.4C117.8 20.4 120 19.9 121.7 19.3C123 18.9 124 18.2 125.1 17.3C126 16.7 126.7 15.9 127.3 15C127.6 14.6 127.9 14.1 128.1 13.6C128.6 12.7 128.9 11.9 129.2 11C129.8 9.50003 130.4 7.50002 130.7 6.30002C131 5.00002 131.7 3.90002 132.7 2.90002C133.4 2.30002 134.1 1.70002 135.1 1.30002L135.6 1.10001H42.2001H42.3Z" fill="#676766"/>
</g>
<g style="mix-blend-mode:multiply" opacity="0.5">
<path d="M42.3 1.00003H5.30005L5.80005 1.20001C6.70005 1.60001 7.50007 2.20002 8.20007 2.80002C9.20007 3.80002 9.90007 5.00001 10.2001 6.20001C10.5001 7.40001 11.0001 9.40002 11.7001 10.9C12.0001 11.8 12.4 12.6 12.8 13.5C13 14 13.3001 14.4 13.6001 14.9C14.2001 15.8 14.9 16.6 15.8 17.2C16.9 18.1 17.9001 18.8 19.2001 19.2C20.8001 19.9 23.1 20.3 26.8 20.3C30.5 20.3 27.0001 20.3 27.1001 20.3C27.1001 20.3 27.2 20.3 27.3 20.3H113.5C113.5 20.3 113.6 20.3 113.7 20.3C113.8 20.3 113.9 20.3 114 20.3C117.7 20.3 120 19.8 121.6 19.2C122.9 18.8 123.9 18.1 125 17.2C125.9 16.6 126.6 15.8 127.2 14.9C127.5 14.5 127.8 14 128 13.5C128.5 12.6 128.8 11.8 129.1 10.9C129.7 9.40002 130.3 7.40001 130.6 6.20001C130.9 4.90001 131.6 3.80002 132.6 2.80002C133.3 2.20002 134 1.60001 135 1.20001L135.5 1.00003H42.2001H42.3Z" fill="#636362"/>
</g>
<g style="mix-blend-mode:multiply" opacity="0.5">
<path d="M42.3 0.900024H5.40002L5.90002 1.10001C6.80002 1.50001 7.60005 2.10001 8.30005 2.70001C9.30005 3.70001 10 4.90001 10.3 6.10001C10.6 7.30001 11.1 9.30002 11.8 10.8C12.1 11.7 12.5 12.5 12.9 13.4C13.1 13.9 13.4001 14.3 13.7001 14.8C14.3001 15.7 15 16.5 15.9 17.1C17 18 17.9 18.7 19.3 19.1C20.9 19.8 23.2 20.2 26.9 20.2C30.6 20.2 27.1001 20.2 27.2001 20.2C27.2001 20.2 27.3 20.2 27.4 20.2H113.5C113.5 20.2 113.6 20.2 113.7 20.2C113.8 20.2 113.9 20.2 114 20.2C117.7 20.2 120 19.7 121.6 19.1C122.9 18.7 123.9 18 125 17.1C125.9 16.5 126.6 15.7 127.2 14.8C127.5 14.4 127.8 13.9 128 13.4C128.5 12.5 128.8 11.7 129.1 10.8C129.7 9.30002 130.3 7.30001 130.6 6.10001C130.9 4.80001 131.6 3.70001 132.6 2.70001C133.3 2.10001 134 1.50001 135 1.10001L135.5 0.900024H42.3Z" fill="#5F5F5E"/>
</g>
<g style="mix-blend-mode:multiply" opacity="0.5">
<path d="M42.3 0.800018H5.5L6 1.00003C6.9 1.40003 7.70002 2.00001 8.40002 2.60001C9.40002 3.60001 10.1 4.80003 10.4 6.00003C10.7 7.20003 11.2 9.20001 11.9 10.7C12.2 11.6 12.6 12.4 13 13.3C13.2 13.8 13.5 14.2 13.8 14.7C14.4 15.6 15.1 16.4 16 17C17.1 17.9 18 18.6 19.4 19C21 19.7 23.3 20.1 27 20.1C30.7 20.1 27.2 20.1 27.3 20.1C27.3 20.1 27.4 20.1 27.5 20.1H113.5C113.5 20.1 113.6 20.1 113.7 20.1C113.7 20.1 113.9 20.1 114 20.1C117.7 20.1 120 19.6 121.6 19C122.9 18.6 123.9 17.9 125 17C125.9 16.4 126.6 15.6 127.2 14.7C127.5 14.3 127.8 13.8 128 13.3C128.5 12.4 128.8 11.6 129.1 10.7C129.7 9.20001 130.3 7.10003 130.6 6.00003C130.9 4.70003 131.6 3.60001 132.6 2.60001C133.2 2.00001 134 1.40003 135 1.00003L135.5 0.800018H42.4H42.3Z" fill="#5B5B5A"/>
</g>
<g style="mix-blend-mode:multiply" opacity="0.5">
<path d="M42.2001 0.700012H5.5L6 0.900024C6.9 1.30002 7.70002 1.90003 8.40002 2.50003C9.40002 3.50003 10.1 4.70002 10.4 5.90002C10.7 7.10002 11.2 9.10001 11.9 10.6C12.2 11.5 12.6 12.3 13 13.2C13.2 13.7 13.5 14.2 13.8 14.6C14.4 15.5 15.1 16.3 16 16.9C17.1 17.8 18 18.5 19.3 18.9C20.9 19.6 23.2 20 26.9 20C30.6 20 27.1001 20 27.2001 20C27.2001 20 27.3 20 27.4 20H113.3C113.3 20 113.4 20 113.5 20C113.5 20 113.7 20 113.8 20C117.5 20 119.7 19.5 121.4 18.9C122.7 18.5 123.6 17.8 124.7 16.9C125.6 16.3 126.3 15.5 126.9 14.6C127.2 14.2 127.5 13.7 127.7 13.2C128.2 12.3 128.5 11.5 128.8 10.6C129.4 9.10001 130 7.00002 130.3 5.90002C130.6 4.60002 131.3 3.50003 132.3 2.50003C132.9 1.90003 133.7 1.30002 134.7 0.900024L135.2 0.700012H42.3H42.2001Z" fill="#575756"/>
</g>
</g>
</svg>
